<svg width="144" height="34" viewBox="0 0 144 34" fill="none" xmlns="http://www.w3.org/2000/svg">
<path d="M14 31H0V17C0 9.27667 6.27667 3 14 3C21.7233 3 28 9.27667 28 17C28 24.7233 21.7233 31 14 31ZM4.66667 26.3333H14C19.145 26.3333 23.3333 22.145 23.3333 17C23.3333 11.855 19.145 7.66667 14 7.66667C8.855 7.66667 4.66667 11.855 4.66667 17V26.3333Z" fill="#FE9A57"/>
<path d="M39.708 21.086L38.408 18.824V27.612H34.82V7.228H42.906C46.806 7.228 49.614 10.088 49.614 14.17C49.614 18.252 46.806 21.086 42.906 21.086H39.708ZM38.408 10.348V17.966H42.542C44.7 17.966 45.948 16.354 45.948 14.17C45.948 11.986 44.7 10.348 42.542 10.348H38.408ZM55.2546 27.612H51.8226V12.428H55.2026V14.716C55.7486 13.546 57.3346 12.22 60.1946 12.22V15.86C56.1906 15.86 55.2546 17.602 55.2546 19.89V27.612ZM76.1048 20.072C76.1048 25.246 72.2048 27.872 68.4347 27.872C64.6648 27.872 60.7387 25.246 60.7387 20.072C60.7387 14.924 64.6648 12.168 68.4347 12.168C72.2048 12.168 76.1048 14.924 76.1048 20.072ZM72.5428 20.072C72.5428 17.16 70.8788 15.288 68.4347 15.288C65.9907 15.288 64.3008 17.16 64.3008 20.072C64.3008 23.01 65.9647 24.752 68.4347 24.752C70.9048 24.752 72.5428 23.01 72.5428 20.072ZM78.5843 27.612V7.228H84.9023L88.6983 24.986L92.4683 7.228H98.7863V27.612H95.4063V9.36L91.4023 27.612H85.9683L81.9643 9.334V27.612H78.5843ZM116.128 12.428V27.612H112.696V26.078C111.786 27.092 110.408 27.872 108.432 27.872C104.246 27.872 101.256 24.596 101.256 20.02C101.256 15.444 104.246 12.168 108.432 12.168C110.408 12.168 111.786 12.948 112.696 13.962V12.428H116.128ZM112.696 20.02C112.696 17.186 111.11 15.288 108.77 15.288C106.404 15.288 104.818 17.186 104.818 20.02C104.818 22.854 106.404 24.752 108.77 24.752C111.11 24.752 112.696 22.854 112.696 20.02ZM127.675 12.428L126.635 15.548H124.113V27.612H120.681V15.548H117.821V12.428H120.681V7.228H124.113V12.428H127.675ZM132.593 21.372L131.085 19.24C131.059 19.5 131.059 19.76 131.059 20.046C131.059 23.478 133.191 24.804 135.479 24.804C137.091 24.804 138.183 24.206 138.859 23.088H142.395C141.355 26.234 138.521 27.872 135.479 27.872C131.553 27.872 127.783 25.246 127.783 20.046C127.783 14.924 131.631 12.168 135.349 12.168C139.223 12.168 142.655 15.262 142.655 20.384V21.372H132.593ZM135.349 15.184C133.685 15.184 131.761 16.068 131.215 18.512H139.171C138.885 16.51 137.351 15.184 135.349 15.184Z" fill="black"/>
</svg>
